<svg width="300" height="300" viewBox="0 0 300 300" fill="none" xmlns="http://www.w3.org/2000/svg">
<path d="M0 119.76C0 21.1376 21.1376 0 119.76 0H180.24C278.862 0 300 21.1376 300 119.76V180.24C300 278.862 278.862 300 180.24 300H119.76C21.1376 300 0 278.862 0 180.24V119.76Z" fill="url(#paint0_linear_2_18)"/>
<path d="M73.72 181.385C59.5667 181.385 50.0883 178.947 45.285 174.07C40.4817 169.157 38.08 162.648 38.08 154.545H60.245C60.245 159.898 61.51 163.235 64.04 164.555C66.57 165.838 69.7417 166.48 73.555 166.48C77.3317 166.48 80.4667 166.003 82.96 165.05C85.49 164.06 86.755 162.373 86.755 159.99C86.755 157.203 84.94 155.333 81.31 154.38C77.68 153.427 72.7117 152.418 66.405 151.355C55.5883 149.192 48.1633 146.717 44.13 143.93C40.1333 141.107 38.135 136.468 38.135 130.015C38.135 123.452 40.5733 117.823 45.45 113.13C50.3267 108.4 59.6033 106.035 73.28 106.035C86.9933 106.035 96.2883 108.583 101.165 113.68C106.078 118.74 108.535 125.083 108.535 132.71H86.315C86.315 127.43 84.995 124.167 82.355 122.92C79.7517 121.637 76.6533 120.995 73.06 120.995C69.1 120.995 65.855 121.527 63.325 122.59C60.8317 123.653 59.585 125.267 59.585 127.43C59.585 130.437 61.455 132.417 65.195 133.37C68.935 134.287 73.9217 135.313 80.155 136.45C91.3383 138.613 98.8733 140.978 102.76 143.545C106.683 146.075 108.645 150.512 108.645 156.855C108.645 163.638 106.262 169.432 101.495 174.235C96.765 179.002 87.5067 181.385 73.72 181.385ZM151.923 181.385C137.77 181.385 128.291 178.947 123.488 174.07C118.685 169.157 116.283 162.648 116.283 154.545H138.448C138.448 159.898 139.713 163.235 142.243 164.555C144.773 165.838 147.945 166.48 151.758 166.48C155.535 166.48 158.67 166.003 161.163 165.05C163.693 164.06 164.958 162.373 164.958 159.99C164.958 157.203 163.143 155.333 159.513 154.38C155.883 153.427 150.915 152.418 144.608 151.355C133.791 149.192 126.366 146.717 122.333 143.93C118.336 141.107 116.338 136.468 116.338 130.015C116.338 123.452 118.776 117.823 123.653 113.13C128.53 108.4 137.806 106.035 151.483 106.035C165.196 106.035 174.491 108.583 179.368 113.68C184.281 118.74 186.738 125.083 186.738 132.71H164.518C164.518 127.43 163.198 124.167 160.558 122.92C157.955 121.637 154.856 120.995 151.263 120.995C147.303 120.995 144.058 121.527 141.528 122.59C139.035 123.653 137.788 125.267 137.788 127.43C137.788 130.437 139.658 132.417 143.398 133.37C147.138 134.287 152.125 135.313 158.358 136.45C169.541 138.613 177.076 140.978 180.963 143.545C184.886 146.075 186.848 150.512 186.848 156.855C186.848 163.638 184.465 169.432 179.698 174.235C174.968 179.002 165.71 181.385 151.923 181.385ZM195.696 181V106.75H217.751V137.99L239.256 106.75H264.061L237.771 143.93L264.116 181H239.366L217.751 149.815V181H195.696Z" fill="white"/>
<defs>
<linearGradient id="paint0_linear_2_18" x1="150" y1="0" x2="150" y2="300" gradientUnits="userSpaceOnUse">
<stop stop-color="#0087BE"/>
<stop offset="1" stop-color="#5BB6FE"/>
</linearGradient>
</defs>
</svg>
